<svg xmlns="http://www.w3.org/2000/svg" version="1.0" viewBox="0 0 110 110"><circle cx="55" cy="55" r="55" fill="#5fe4d4" class="color25b7d3 svgShape"/><path fill="#8526fe" d="m87 87-3.591-9.337a8 8 0 0 0-5.168-4.791L65 69.715v-8.283c-2.841 4.396-6.716 6.473-10 7.567-3.281-1.094-7.158-3.157-10-7.544V72s2 4 10 4v11h32z" class="colorf7b4b4 svgShape"/><path fill="#ad59d4" d="m65 69.715 5 1.192V53.781a3.947 3.947 0 0 1-2.178 1.145c-.7 2.611-1.679 4.747-2.822 6.513v8.276z" class="color3e3e3f svgShape"/><path fill="#fbe7c8" d="M45 61.456v8.26l-13.241 3.157a8 8 0 0 0-5.168 4.791L23 87h32V69c-3.281-1.094-7.158-3.157-10-7.544z" class="colorfbc8c8 svgShape"/><path fill="#fbe7c8" d="M70.025 45.003v.015c-1.531.413-8.763-1.464-9.013-16.25C59.367 28.272 57.387 28 55 28c-12.976 0-13.982 7.971-14 16.979C41 61.777 49 67 55 69c4.604-1.535 10.38-4.973 12.822-14.075C71.136 54.353 72 50.313 72 47.222c0-1.101-.983-2.201-1.975-2.219z" class="colorfbc8c8 svgShape"/><path fill="#fab855" d="M83.409 77.663a7.99 7.99 0 0 0-2.93-3.705C78.021 78.543 67.102 82 54 82c-12.057 0-22.264-2.927-25.732-6.967a7.996 7.996 0 0 0-1.677 2.63L23 87h64l-3.591-9.337z" class="colorfa5655 svgShape"/><path fill="#fbedd7" d="M55 28c-12.976 0-13.982 7.971-14 16.979C41 61.777 49 67 55 69V28z" class="colorfbd7d7 svgShape"/><path fill="#ad59d4" d="M52 47a2 2 0 0 0-2-2h-.006c.001.021.006.042.006.062a2 2 0 0 1-1.994 2A1.998 1.998 0 0 0 52 47zM61.994 47a2 2 0 0 0-2-2h-.006c.001.021.006.041.006.062a2 2 0 0 1-1.994 2A1.996 1.996 0 0 0 61.994 47z" class="color3e3e3f svgShape"/><path fill="#d8a353" d="M50 58h10s0 3-5 3-5-3-5-3z" class="colorf79392 svgShape"/><path fill="#ad59d4" d="M37 39v46s11-6 11-24.293V45c0-15.988 14-8 13-17 0-8-24-4-24 11z" class="color3e3e3f svgShape"/><path fill="#ad59d4" d="M61 28.066c.025 15.439 7.469 17.372 9.025 16.953 0-3.253 2.124-16.976-8.958-17.018a.067.067 0 0 0-.067.065z" class="color3e3e3f svgShape"/><path fill="#fff" d="m69.347 56 1.527 3.687a1.653 1.653 0 1 1-3.054 0L69.347 56z" class="colorffffff svgShape"/></svg>